<svg width="235" height="359" viewBox="0 0 235 359" fill="none" xmlns="http://www.w3.org/2000/svg">
<path d="M75.9277 241.455H140.869V231.445C140.869 223.633 142.09 216.878 144.531 211.182C146.973 205.322 151.204 199.788 157.227 194.58C163.249 189.209 171.631 183.431 182.373 177.246C193.929 170.41 203.532 163.005 211.182 155.029C218.994 146.891 224.854 137.858 228.76 127.93C232.666 118.001 234.619 106.934 234.619 94.7266V94.4824C234.619 75.765 229.736 59.3262 219.971 45.166C210.368 31.0059 196.859 19.9382 179.443 11.9629C162.191 3.98763 141.927 0 118.652 0C93.75 0 72.5911 4.31315 55.1758 12.9395C37.7604 21.5658 24.3327 33.4473 14.8926 48.584C5.61523 63.5579 0.651042 80.5664 0 99.6094V102.051H66.1621L66.4062 100.098C66.8945 91.6341 69.1732 84.1471 73.2422 77.6367C77.3112 71.1263 82.8451 65.9994 89.8438 62.2559C96.8424 58.5124 104.98 56.6406 114.258 56.6406C123.535 56.6406 131.592 58.3496 138.428 61.7676C145.426 65.1855 150.879 69.9056 154.785 75.9277C158.691 81.7871 160.645 88.7044 160.645 96.6797V96.9238C160.645 104.574 159.424 111.247 156.982 116.943C154.541 122.64 150.309 128.092 144.287 133.301C138.428 138.509 130.208 144.287 119.629 150.635C108.561 157.145 99.6094 164.144 92.7734 171.631C86.1003 178.955 81.3802 187.174 78.6133 196.289C75.8464 205.404 74.8698 215.739 75.6836 227.295L75.9277 241.455ZM109.375 358.398C120.605 358.398 130.046 354.736 137.695 347.412C145.508 339.925 149.414 330.811 149.414 320.068C149.414 309.326 145.508 300.293 137.695 292.969C130.046 285.482 120.605 281.738 109.375 281.738C98.3073 281.738 88.8672 285.482 81.0547 292.969C73.4049 300.293 69.5801 309.326 69.5801 320.068C69.5801 330.811 73.4049 339.925 81.0547 347.412C88.8672 354.736 98.3073 358.398 109.375 358.398Z" fill="#EAEAEA"/>
</svg>
