<svg width="83" height="29" viewBox="0 0 83 29" fill="none" xmlns="http://www.w3.org/2000/svg">
<path d="M22.4973 6.9095V20.3033H23.5497V6.9095H22.4973Z" fill="#EAEAEA"/>
<path d="M25.3818 7.90447H28.9024V20.3033H29.9548V7.90447H33.4754V6.9095H25.3818V7.90447Z" fill="#EAEAEA"/>
<path d="M34.7644 13.6064C34.7644 12.4584 35.0068 11.4506 35.4915 10.5832C35.9762 9.71582 36.6268 9.03975 37.4432 8.55502C38.2596 8.05754 39.1716 7.8088 40.1793 7.8088C40.8044 7.8088 41.3784 7.87896 41.9014 8.01927C42.4244 8.15959 42.9027 8.37006 43.3364 8.65069C43.7702 8.91857 44.1528 9.24385 44.4845 9.62652V8.22974C43.9232 7.73226 43.3109 7.36234 42.6476 7.11997C41.9843 6.86485 41.1616 6.73729 40.1793 6.73729C39.2482 6.73729 38.3807 6.9095 37.5771 7.25391C36.7863 7.58557 36.0974 8.05754 35.5107 8.66983C34.9239 9.28211 34.4647 10.0092 34.133 10.8511C33.8014 11.693 33.6355 12.6114 33.6355 13.6064C33.6355 14.6014 33.8014 15.5198 34.133 16.3617C34.4647 17.2036 34.9239 17.9307 35.5107 18.543C36.0974 19.1552 36.7863 19.6336 37.5771 19.978C38.3807 20.3097 39.2482 20.4755 40.1793 20.4755C41.1616 20.4755 41.9843 20.3543 42.6476 20.1119C43.3109 19.8568 43.9232 19.4805 44.4845 18.983V17.5671C44.1528 17.9498 43.7702 18.2815 43.3364 18.5621C42.9155 18.8427 42.4435 19.0532 41.9205 19.1935C41.3975 19.3338 40.8171 19.404 40.1793 19.404C39.1716 19.404 38.2596 19.1552 37.4432 18.6578C36.6268 18.1603 35.9762 17.4778 35.4915 16.6104C35.0068 15.743 34.7644 14.7417 34.7644 13.6064Z" fill="#EAEAEA"/>
<path d="M48.0543 13.5107H57.0856V12.5158H48.0543V13.5107ZM56.3776 6.9095V20.3033H57.4491V6.9095H56.3776ZM47.4994 6.9095V20.3033H48.5518V6.9095H47.4994Z" fill="#EAEAEA"/>
<path d="M61.2276 20.3033H67.8671V19.3083H61.2276V20.3033ZM61.2276 7.90447H67.8671V6.9095H61.2276V7.90447ZM61.2276 13.4533H67.4844V12.4584H61.2276V13.4533ZM60.6727 6.9095V20.3033H61.7251V6.9095H60.6727Z" fill="#EAEAEA"/>
<path d="M81.073 6.9095V18.122L70.8937 6.39288V20.3033H71.9461V9.12904L82.1253 20.8199V6.9095H81.073Z" fill="#EAEAEA"/>
<path d="M0 0V28.2758H7.06894V0H0ZM16.6827 0L5.08964 13.4512L17.0058 28.2758H25.2866L13.2088 13.2492L24.6807 0H16.6827Z" fill="#EAEAEA"/>
<path d="M37.6705 2.76379H81.5192" stroke="#EAEAEA" stroke-width="0.437577"/>
<path d="M37.6705 25.0868H81.5192" stroke="#EAEAEA" stroke-width="0.437577"/>
</svg>
